<svg width="326" height="361" fill="none" xmlns="http://www.w3.org/2000/svg"><path d="M252.524 13.682c24.481-21.744 62.969-16.507 73.588 14.467 12.635 36.855 17.194 77.091 12.805 116.936-6.742 61.188 15.68 158.515-26.16 195.677-41.841 37.163-144.516 11.116-196.946 2.483-38.385-6.32-74.183-25.478-103.285-54.663-18.775-18.828-14.333-49.005 5.547-66.662 24.481-21.744 62.897-13.978 93.384-2.034a86.085 86.085 0 0017.415 4.804c25.488 4.196 51.234-3.595 71.574-21.661 20.339-18.066 33.607-44.926 36.884-74.671a132.129 132.129 0 00-1.978-41.355c-5.425-26.03-2.707-55.664 17.172-73.321z" fill="#E1748C"/></svg>