<svg width="60" height="60" fill="none" xmlns="http://www.w3.org/2000/svg"><path fill-rule="evenodd" clip-rule="evenodd" d="M27.523 26.582a6.408 6.408 0 013.954 0c1.426.463 2.461 1.613 3.422 3.081.964 1.474 2.012 3.53 3.346 6.147l.036.071c.314.617.05 1.362-.59 1.665-.64.303-1.413.048-1.727-.568-1.378-2.703-2.366-4.64-3.249-5.988-.895-1.368-1.524-1.876-2.062-2.05a3.735 3.735 0 00-2.306 0c-.539.174-1.168.682-2.062 2.05-.883 1.349-1.871 3.285-3.25 5.988l-1.511 2.967a50.78 50.78 0 00-.783 1.572c-.18.39-.232.562-.244.635-.22 1.234.73 2.326 1.941 2.36.067.002.242-.011.668-.107.41-.092.952-.235 1.724-.438l.05-.014c.822-.217 1.296-.342 1.775-.435a14.869 14.869 0 015.69 0c.479.093.953.218 1.776.435l.05.014c.77.203 1.313.346 1.723.438.427.096.601.11.668.107 1.212-.034 2.16-1.126 1.941-2.36-.12-.678.353-1.32 1.055-1.436.703-.115 1.37.34 1.49 1.017.474 2.675-1.58 5.186-4.41 5.266-.422.012-.87-.068-1.328-.17-.466-.105-1.057-.261-1.794-.456l-.028-.007c-.886-.234-1.272-.336-1.655-.41-1.54-.3-3.126-.3-4.666 0-.383.074-.769.176-1.655.41l-.028.007c-.737.195-1.328.351-1.794.455-.457.103-.907.183-1.327.17-2.832-.079-4.885-2.59-4.411-5.265.07-.398.237-.808.43-1.227.197-.426.47-.963.812-1.634l1.561-3.062c1.334-2.617 2.382-4.673 3.346-6.147.96-1.468 1.996-2.618 3.422-3.081zM24.846 14.23c1.02.917 1.809 2.267 2.213 3.811.405 1.546.38 3.107-.049 4.402-.421 1.273-1.31 2.475-2.758 2.871-1.465.401-2.857-.195-3.867-1.102-1.02-.917-1.81-2.267-2.214-3.812-.405-1.545-.379-3.106.05-4.401.42-1.273 1.31-2.475 2.758-2.872 1.464-.4 2.857.195 3.867 1.103zm-1.76 1.82c-.61-.549-1.102-.612-1.401-.53-.315.087-.735.419-1.005 1.234-.263.795-.31 1.878-.006 3.037.304 1.16.872 2.063 1.471 2.601.61.548 1.101.611 1.4.53.316-.087.736-.42 1.006-1.235.262-.794.31-1.877.006-3.036-.304-1.16-.872-2.063-1.472-2.602zm11.066-1.82c-1.02.917-1.809 2.267-2.213 3.811-.405 1.546-.38 3.107.049 4.402.421 1.273 1.31 2.475 2.758 2.871 1.465.401 2.857-.195 3.867-1.102 1.02-.917 1.809-2.267 2.214-3.812s.379-3.106-.05-4.401c-.42-1.273-1.31-2.475-2.758-2.872-1.464-.4-2.857.195-3.867 1.103zm1.76 1.82c.61-.549 1.102-.612 1.401-.53.316.087.735.419 1.005 1.234.263.795.31 1.878.006 3.037-.304 1.16-.872 2.063-1.471 2.601-.61.548-1.102.611-1.4.53-.316-.087-.736-.42-1.005-1.235-.263-.794-.31-1.877-.007-3.036.304-1.16.872-2.063 1.472-2.602zM15.462 28.237c.496.33.992.918 1.297 1.705.305.788.324 1.529.174 2.067-.151.54-.427.773-.657.851-.238.081-.63.066-1.131-.268-.496-.331-.992-.918-1.297-1.705-.305-.788-.324-1.529-.174-2.067.15-.54.427-.773.657-.851.237-.081.629-.067 1.13.268zm1.468-2.046c-.97-.647-2.224-.988-3.459-.568-1.241.423-1.983 1.453-2.29 2.551-.306 1.1-.22 2.372.249 3.583.469 1.21 1.27 2.23 2.246 2.88.97.647 2.225.99 3.46.569 1.241-.423 1.983-1.453 2.29-2.552.306-1.1.22-2.372-.249-3.582-.47-1.211-1.271-2.23-2.247-2.88zm26.61 2.046c-.496.33-.992.918-1.297 1.705-.305.788-.324 1.529-.174 2.067.151.54.427.773.657.851.238.081.63.066 1.13-.268.497-.331.993-.918 1.298-1.705.306-.788.324-1.529.174-2.067-.15-.54-.427-.773-.657-.851-.238-.081-.629-.067-1.13.268zm-1.468-2.046c.97-.647 2.224-.988 3.459-.568 1.241.423 1.983 1.453 2.29 2.551.307 1.1.22 2.372-.249 3.583-.469 1.21-1.27 2.23-2.246 2.88-.97.647-2.225.99-3.46.569-1.241-.423-1.983-1.453-2.29-2.552-.306-1.1-.22-2.372.249-3.582.47-1.211 1.271-2.23 2.247-2.88z" fill="#E1748C"/></svg>